<svg xmlns="http://www.w3.org/2000/svg" version="1.1" xmlns:xlink="http://www.w3.org/1999/xlink" xmlns:svgjs="http://svgjs.dev/svgjs" width="1500" height="619" viewBox="0 0 1500 619"><g transform="matrix(1,0,0,1,-91.31486654616197,-3.714224991167555)"><svg viewBox="0 0 421 174" data-background-color="#14293a" preserveAspectRatio="xMidYMid meet" height="619" width="1500" xmlns="http://www.w3.org/2000/svg" xmlns:xlink="http://www.w3.org/1999/xlink"><g id="tight-bounds" transform="matrix(1,0,0,1,25.629039210622807,1.044063244690065)"><svg viewBox="0 0 395.52 147.02949210986603" height="147.02949210986603" width="395.52"><g><svg viewBox="0 0 660.8257810761781 245.65351679999995" height="147.02949210986603" width="395.52"><g transform="matrix(1,0,0,1,263.3281810761783,64.11448452930017)"><svg viewBox="0 0 397.4975999999999 117.4245477413996" height="117.4245477413996" width="397.4975999999999"><g id="textblocktransform"><svg viewBox="0 0 397.4975999999999 117.4245477413996" height="117.4245477413996" width="397.4975999999999" id="textblock"><g><rect width="397.4975999999999" height="6.751721753500126" x="0" y="82.82213395612737" fill="#e9e4de" opacity="1" stroke-width="0" stroke="transparent" fill-opacity="1" class="rect-qz-0" data-fill-palette-color="primary" rx="1%" id="qz-0" data-palette-color="#e9e4de"></rect></g><g transform="matrix(1,0,0,1,0.9887999999999693,0)"><svg viewBox="0 0 395.52 74.86853503184712" height="74.86853503184712" width="395.52"><g transform="matrix(1,0,0,1,0,0)"><svg width="395.52" viewBox="1.25 -35.4 251.18 47.55" height="74.86853503184712" data-palette-color="#e9e4de"><path d="M12.8 12.15L12.8 12.15Q11.55 12.15 9.95 12.08 8.35 12 7.35 11.9L7.35 11.9 1.25 8.95 3.75 2.45 11.6 5Q18.25 5 18.25-0.55L18.25-0.55 18.25-1.5 17.75-1.75Q17.05-1.05 15.53-0.33 14 0.4 10.75 0.4L10.75 0.4Q8.4 0.4 6.2-0.78 4-1.95 2.63-4.55 1.25-7.15 1.25-11.3L1.25-11.3Q1.25-15.95 2.65-18.78 4.05-21.6 6.23-22.9 8.4-24.2 10.75-24.2L10.75-24.2Q13.35-24.2 15.03-23.45 16.7-22.7 17.25-22L17.25-22 17.25-23.65 26.3-23.65 26.8-20.65 26.25-17.65 26.3-0.05Q26.3 4.25 24.63 6.95 22.95 9.65 19.93 10.9 16.9 12.15 12.8 12.15ZM14.5-6.65L14.5-6.65Q15.4-6.65 16.15-6.9 16.9-7.15 17.25-7.35L17.25-7.35 17.25-16.7Q17.05-16.85 16.5-17 15.95-17.15 15-17.15L15-17.15Q13.05-17.15 11.9-15.9 10.75-14.65 10.75-11.85L10.75-11.85Q10.75-9.1 11.85-7.88 12.95-6.65 14.5-6.65ZM43.3 0.5L43.3 0.5Q39.45 0.5 36.45-0.65 33.45-1.8 31.75-4.5 30.05-7.2 30.05-11.8L30.05-11.8Q30.05-15.1 31.17-17.45 32.3-19.8 34.2-21.28 36.1-22.75 38.45-23.43 40.8-24.1 43.3-24.1L43.3-24.1Q47.6-24.1 49.92-23.25 52.25-22.4 53-21.9L53-21.9 55.5-13.95 54.5-10.85 39-10.85Q39.35-9 40.85-7.75 42.35-6.5 45.8-6.5L45.8-6.5Q48.5-6.5 50.45-7.1 52.4-7.7 53.5-8.15L53.5-8.15 53.5-1.45Q52-0.65 49.17-0.08 46.35 0.5 43.3 0.5ZM39.05-14.05L39.05-14.05 45.95-15.05 45.5-17.2Q45.15-17.4 44.47-17.5 43.8-17.6 43.3-17.6L43.3-17.6Q41.9-17.6 40.97-17 40.05-16.4 39.57-15.58 39.1-14.75 39.05-14.05ZM70.75 0.5L70.75 0.5Q64.65 0.5 61.3-2.4 57.95-5.3 57.95-11.8L57.95-11.8Q57.95-18.35 61.3-21.23 64.65-24.1 70.75-24.1L70.75-24.1Q77-24.1 80.22-21.23 83.45-18.35 83.45-11.8L83.45-11.8Q83.45-5.3 80.22-2.4 77 0.5 70.75 0.5ZM70.75-6L70.75-6Q72.8-6 73.6-7.53 74.4-9.05 74.4-11.8L74.4-11.8Q74.4-14.6 73.6-16.1 72.8-17.6 70.75-17.6L70.75-17.6Q68.65-17.6 67.82-16.1 67-14.6 67-11.8L67-11.8Q67-9.05 67.82-7.53 68.65-6 70.75-6ZM96.34 0.5L96.34 0.5Q92.94 0.5 90.89-1.5 88.84-3.5 88.84-6.55L88.84-6.55 88.84-17.45 85.19-17.45 85.19-22.2 88.34-24.65 91.89-30.85 97.79-30.85 97.79-23.6 104.79-23.6 104.79-17.1 97.79-17.1 97.79-6.4 104.79-6.45 104.79-1Q104.79-1 103.62-0.63 102.44-0.25 100.54 0.13 98.64 0.5 96.34 0.5ZM115.79 0.5L115.79 0.5Q113.64 0.5 111.82-0.13 109.99-0.75 108.89-2.3 107.79-3.85 107.79-6.6L107.79-6.6Q107.79-9.1 109.04-10.75 110.29-12.4 112.44-13.2 114.59-14 117.29-14L117.29-14Q119.89-14 121.19-13.43 122.49-12.85 123.44-12.25L123.44-12.25 123.79-12.55Q123.79-14.05 123.54-15.05 123.29-16.05 122.39-16.57 121.49-17.1 119.59-17.1L119.59-17.1Q117.74-17.1 115.67-16.78 113.59-16.45 111.87-15.98 110.14-15.5 109.29-15.05L109.29-15.05 109.29-22.55Q110.84-23.1 113.72-23.58 116.59-24.05 120.79-24.05L120.79-24.05Q125.29-24.05 127.92-22.93 130.54-21.8 131.69-19.68 132.84-17.55 132.84-14.6L132.84-14.6 132.84-7.95 133.84-2.9 132.84 0.05 124.29 0.05 124.29-2.4 123.79-2.65Q123.39-2.25 122.39-1.5 121.39-0.75 119.74-0.13 118.09 0.5 115.79 0.5ZM120.04-6.05L120.04-6.05Q121.39-6.05 122.37-6.3 123.34-6.55 123.79-6.75L123.79-6.75 123.79-7.7Q123.79-8.35 122.87-8.95 121.94-9.55 119.99-9.55L119.99-9.55Q117.29-9.55 117.29-7.65L117.29-7.65Q117.29-6.85 117.89-6.45 118.49-6.05 120.04-6.05ZM148.64 12.15L148.64 12.15Q147.39 12.15 145.79 12.08 144.19 12 143.19 11.9L143.19 11.9 137.09 8.95 139.59 2.45 147.44 5Q154.09 5 154.09-0.55L154.09-0.55 154.09-1.5 153.59-1.75Q152.89-1.05 151.36-0.33 149.84 0.4 146.59 0.4L146.59 0.4Q144.24 0.4 142.04-0.78 139.84-1.95 138.46-4.55 137.09-7.15 137.09-11.3L137.09-11.3Q137.09-15.95 138.49-18.78 139.89-21.6 142.06-22.9 144.24-24.2 146.59-24.2L146.59-24.2Q149.19-24.2 150.86-23.45 152.54-22.7 153.09-22L153.09-22 153.09-23.65 162.14-23.65 162.64-20.65 162.09-17.65 162.14-0.05Q162.14 4.25 160.46 6.95 158.79 9.65 155.76 10.9 152.74 12.15 148.64 12.15ZM150.34-6.65L150.34-6.65Q151.24-6.65 151.99-6.9 152.74-7.15 153.09-7.35L153.09-7.35 153.09-16.7Q152.89-16.85 152.34-17 151.79-17.15 150.84-17.15L150.84-17.15Q148.89-17.15 147.74-15.9 146.59-14.65 146.59-11.85L146.59-11.85Q146.59-9.1 147.69-7.88 148.79-6.65 150.34-6.65ZM176.64 0L167.64 0 167.64-27.4 166.64-32.4 167.64-35.4 176.64-35.4 176.64-27.3 176.14-21.75 176.64-21.5Q177.24-22.4 178.86-23.28 180.49-24.15 183.14-24.15L183.14-24.15Q187.64-24.15 189.89-21.6 192.14-19.05 192.14-14.45L192.14-14.45 192.14-7.95 193.19-3.05 192.14 0 183.14 0 183.14-13.15Q183.14-15.05 182.31-16.07 181.49-17.1 179.74-17.1L179.74-17.1 176.64-15.65 176.64 0ZM204.48 0.5L204.48 0.5Q201.48 0.5 199.86-0.65 198.23-1.8 197.61-3.98 196.98-6.15 196.98-9.2L196.98-9.2 196.98-23.65 205.98-23.65 205.98-10.5Q205.98-8.65 206.71-7.6 207.43-6.55 208.88-6.55L208.88-6.55Q210.23-6.55 211.36-7.7 212.48-8.85 212.48-11.05L212.48-11.05 212.48-23.65 221.48-23.65 221.48-8.05 222.53-3.05 221.48 0 213.03 0 213.03-2.45 212.53-2.7Q211.88-2.05 210.66-1.3 209.43-0.55 207.86-0.03 206.28 0.5 204.48 0.5ZM242.93 0.5L242.93 0.5Q240.53 0.5 239.11 0.08 237.68-0.35 237.03-0.78 236.38-1.2 236.38-1.2L236.38-1.2 236.38 0.05 227.38 0.05 227.38-27.35 226.33-32.35 227.38-35.35 236.38-35.35 236.38-27.3 235.88-21.65 236.38-21.4Q237.38-22.35 238.86-23.23 240.33-24.1 242.93-24.1L242.93-24.1Q247.38-24.1 249.91-21.25 252.43-18.4 252.43-12.25L252.43-12.25Q252.43-7.65 251.16-4.83 249.88-2 247.73-0.75 245.58 0.5 242.93 0.5ZM238.68-6.35L238.68-6.35Q240.63-6.35 241.78-7.73 242.93-9.1 242.93-11.85L242.93-11.85Q242.93-14.55 241.98-15.78 241.03-17 239.18-17L239.18-17 236.38-15.95 236.38-7Q236.38-7 236.91-6.68 237.43-6.35 238.68-6.35Z" opacity="1" transform="matrix(1,0,0,1,0,0)" fill="#e9e4de" class="wordmark-text-0" data-fill-palette-color="primary" id="text-0"></path></svg></g></svg></g><g transform="matrix(1,0,0,1,0,97.52745463390775)"><svg viewBox="0 0 232.209792 19.897093107491855" height="19.897093107491855" width="232.209792"><g transform="matrix(1,0,0,1,0,0)"><svg width="232.209792" viewBox="2.55 -34.15 552.5500000000001 47.349999999999994" height="19.897093107491855" data-palette-color="#e9e4de"><path d="M32.8-12.75L32.8-0.9Q28 0.3 21.8 0.3L21.8 0.3Q11.4 0.3 6.5-4.7L6.5-4.7Q4.7-6.5 3.63-9.38 2.55-12.25 2.55-16.4 2.55-20.55 4.17-24.08 5.8-27.6 8.6-29.65L8.6-29.65Q14.15-33.75 21.8-33.75L21.8-33.75 32.1-33.3 32.4-24.2 30.8-24.2 29.1-30.75Q26.4-31.9 22.7-31.9L22.7-31.9Q16.65-31.9 12.68-27.93 8.7-23.95 8.7-16.35 8.7-8.75 12.58-5.13 16.45-1.5 22.5-1.5L22.5-1.5Q25.45-1.5 27.9-2.1L27.9-2.1 27.9-12.75 23.75-13.2 23.75-14.4 35.8-14.4 35.8-13.2 32.8-12.75ZM64.85 0L39.3 0 39.3-1.2 43.65-1.65 43.65-31.75 39.3-32.3 39.3-33.4 63.25-33.4 63.3-26.3 62-26.3 60.3-31.6 48.8-31.75 48.8-18.3 58.9-18.3 60.45-22 61.45-22 61.45-12.7 60.4-12.7 58.9-16.5 48.8-16.5 48.8-1.6 61.8-1.75 64.15-7.45 65.45-7.45 64.85 0ZM103.25-16.8Q103.25-9.3 98.7-4.38 94.15 0.55 86.5 0.55 78.85 0.55 74.27-4.38 69.7-9.3 69.7-16.8 69.7-24.3 74.27-29.23 78.85-34.15 86.5-34.15 94.15-34.15 98.7-29.23 103.25-24.3 103.25-16.8ZM86.55-1L86.55-1Q97.15-1 97.15-16.8L97.15-16.8Q97.15-24.4 94.72-28.5 92.3-32.6 86.5-32.6 80.7-32.6 78.25-28.53 75.8-24.45 75.8-16.8L75.8-16.8Q75.8-1 86.55-1ZM151.64-1.2L151.64 0 138.14 0 138.14-1.05 142.04-1.65 137.64-13.15 126.39-13.15 122.19-2.5 126.64-1.2 126.64 0 116.19 0 116.19-1.2 119.99-2.5 132.29-33.4 134.74-33.4 147.79-1.65 151.64-1.2ZM127.09-15L136.89-15 131.99-27.15 127.09-15ZM160.29-19.15L160.74-19.1Q162.99-24.9 169.79-24.9L169.79-24.9Q173.19-24.9 175.29-22.88 177.39-20.85 177.39-17.1L177.39-17.1Q177.39-10.65 176.99-1.45L176.99-1.45 180.44-1.2 180.44 0 169.39 0 169.39-1.2 172.09-1.4Q172.49-12.7 172.49-14.35 172.49-16 172.44-16.88 172.39-17.75 172.16-19.03 171.94-20.3 171.49-21.05L171.49-21.05Q170.39-22.9 168.04-22.9L168.04-22.9Q164.84-22.9 162.79-20.25 160.74-17.6 160.74-14.5L160.74-14.5 160.74-1.45 164.49-1.2 164.49 0 152.54 0 152.54-1.2 155.84-1.45 155.84-22.6 151.59-22.8 151.59-23.95 160.54-24.55 160.29-19.15ZM191.34-19.15L191.79-19.1Q194.04-24.9 200.84-24.9L200.84-24.9Q204.24-24.9 206.34-22.88 208.44-20.85 208.44-17.1L208.44-17.1Q208.44-10.65 208.04-1.45L208.04-1.45 211.49-1.2 211.49 0 200.44 0 200.44-1.2 203.14-1.4Q203.54-12.7 203.54-14.35 203.54-16 203.49-16.88 203.44-17.75 203.21-19.03 202.99-20.3 202.54-21.05L202.54-21.05Q201.44-22.9 199.09-22.9L199.09-22.9Q195.89-22.9 193.84-20.25 191.79-17.6 191.79-14.5L191.79-14.5 191.79-1.45 195.54-1.2 195.54 0 183.59 0 183.59-1.2 186.89-1.45 186.89-22.6 182.64-22.8 182.64-23.95 191.59-24.55 191.34-19.15ZM239.83-12.2Q239.83-6.65 236.48-3.05 233.13 0.55 227.36 0.55 221.58 0.55 218.23-3.05 214.88-6.65 214.88-12.2 214.88-17.75 218.23-21.35 221.58-24.95 227.36-24.95 233.13-24.95 236.48-21.35 239.83-17.75 239.83-12.2ZM220.33-12.2L220.33-12.2Q220.33-0.65 227.36-0.65 234.38-0.65 234.38-12.2L234.38-12.2Q234.38-17.8 232.78-20.75 231.18-23.7 227.38-23.7 223.58-23.7 221.96-20.75 220.33-17.8 220.33-12.2ZM259.43-5.2L259.43-5.2Q259.43-5.05 259.38-4.85L259.38-4.85Q258.58-2.4 256.71-0.93 254.83 0.55 252.33 0.55 249.83 0.55 248.16-0.88 246.48-2.3 246.48-6.45L246.48-6.45Q246.48-7.6 246.73-23.1L246.73-23.1 243.28-23.1 243.28-24.4 246.78-24.4 246.83-31.75 251.73-31.75 251.58-24.4 258.73-24.4 258.73-23.1 251.58-23.1Q251.33-6.95 251.33-4.2L251.33-4.2Q251.33-0.85 253.53-0.85L253.53-0.85Q254.88-0.85 256.36-2.4 257.83-3.95 258.43-5.9L258.43-5.9Q259.43-5.9 259.43-5.2ZM267.08-5.4L267.08-5.4Q267.08-2.15 269.73-1.55L269.73-1.55Q270.33-1.4 270.88-1.4L270.88-1.4Q272.78-1.4 274.83-3.03 276.88-4.65 276.98-7.4L276.98-7.4 276.98-11.7Q267.08-11.6 267.08-5.4ZM269.08 0.6L269.08 0.6Q266.23 0.6 264.2-0.98 262.18-2.55 262.18-5.4L262.18-5.4Q262.23-9.25 266.05-11.15 269.88-13.05 276.98-13.05L276.98-13.05 276.98-17.35Q276.98-23.7 272.38-23.7L272.38-23.7Q270.03-23.7 268.58-21.75L268.58-21.75Q267.58-20.4 267.58-18.4L267.58-18.4Q267.58-17.55 267.78-16.6L267.78-16.6Q267.08-16.1 266.35-16.1 265.63-16.1 264.93-16.4L264.93-16.4Q263.33-17 263.33-18.7L263.33-18.7Q263.33-21 264.98-22.5L264.98-22.5Q267.68-24.95 272.43-24.95 277.18-24.95 279.33-22.93 281.48-20.9 281.48-16.55L281.48-16.55 281.48-1.4 285.68-1.2 285.73-0.05 277.38 0.55 276.93-3.9Q274.63 0.6 269.08 0.6ZM303.18-5.2L303.18-5.2Q303.18-5.05 303.13-4.85L303.13-4.85Q302.33-2.4 300.45-0.93 298.58 0.55 296.08 0.55 293.58 0.55 291.9-0.88 290.23-2.3 290.23-6.45L290.23-6.45Q290.23-7.6 290.48-23.1L290.48-23.1 287.03-23.1 287.03-24.4 290.53-24.4 290.58-31.75 295.48-31.75 295.33-24.4 302.48-24.4 302.48-23.1 295.33-23.1Q295.08-6.95 295.08-4.2L295.08-4.2Q295.08-0.85 297.28-0.85L297.28-0.85Q298.63-0.85 300.1-2.4 301.58-3.95 302.18-5.9L302.18-5.9Q303.18-5.9 303.18-5.2ZM317.67 0.55Q312.52 0.55 309.37-2.95 306.22-6.45 306.22-12.2 306.22-17.95 309.55-21.45 312.87-24.95 317.92-24.95 322.97-24.95 325.47-22.68 327.97-20.4 327.97-16.35L327.97-16.35Q327.97-15.15 327.77-13.95L327.77-13.95 311.62-13.95 311.62-12.2Q311.62-6.6 313.22-3.73 314.82-0.85 318.47-0.85L318.47-0.85Q323.62-0.85 326.42-5.35L326.42-5.35Q327.52-5 327.52-4.3L327.52-4.3Q327.52-3.05 325.22-1.4L325.22-1.4Q324.12-0.6 322.12-0.03 320.12 0.55 317.67 0.55L317.67 0.55ZM323.22-17.4L323.22-17.4Q323.22-19.7 322.27-21.35L322.27-21.35Q320.97-23.55 318.07-23.55L318.07-23.55Q312.67-23.55 311.77-15.75L311.77-15.75 323.12-15.75Q323.22-16.6 323.22-17.4ZM350.64 10.2Q349.62 11.35 348.07 12.28 346.52 13.2 344.94 13.2 343.37 13.2 342.49 12.38 341.62 11.55 341.62 10.18 341.62 8.8 342.87 7.4L342.87 7.4Q344.27 9 346.02 9L346.02 9Q348.52 9 350.32 6.83 352.12 4.65 353.82 0L353.82 0 344.22-22.8 341.67-23.1 341.67-24.4 352.32-24.4 352.32-23.1 348.87-22.8 356.02-5.35 362.17-22.15 358.17-23.1 358.17-24.4 367.77-24.4 367.77-23.1 364.27-22.15 355.82 0Q354.92 2.3 354.42 3.55 353.92 4.8 352.79 6.93 351.67 9.05 350.64 10.2ZM394.32-12.2Q394.32-6.65 390.97-3.05 387.62 0.55 381.84 0.55 376.07 0.55 372.72-3.05 369.37-6.65 369.37-12.2 369.37-17.75 372.72-21.35 376.07-24.95 381.84-24.95 387.62-24.95 390.97-21.35 394.32-17.75 394.32-12.2ZM374.82-12.2L374.82-12.2Q374.82-0.65 381.84-0.65 388.87-0.65 388.87-12.2L388.87-12.2Q388.87-17.8 387.27-20.75 385.67-23.7 381.87-23.7 378.07-23.7 376.44-20.75 374.82-17.8 374.82-12.2ZM408.86 0.6L408.86 0.6Q400.86 0.6 400.86-7.1L400.86-7.1Q400.86-12.75 401.21-22.8L401.21-22.8 397.21-23 397.21-24.15 406.11-24.7Q405.76-11.5 405.76-6.75L405.76-6.75Q405.76-3.9 406.81-2.5 407.86-1.1 410.34-1.1 412.81-1.1 415.01-3.88 417.21-6.65 417.21-8.75L417.21-8.75 417.21-22.8 413.06-23 413.06-24.15 422.11-24.7 422.11-1.55 426.36-1.35 426.41-0.2 417.41 0.4 417.76-5 417.16-5Q414.56 0.6 408.86 0.6ZM444.51-25L444.51-25Q445.81-25 446.56-24.38 447.31-23.75 447.31-22.65L447.31-22.65Q447.31-20.75 445.86-20.15L445.86-20.15Q445.06-20.8 442.96-20.8 440.86-20.8 438.94-19.43 437.01-18.05 437.01-16.3L437.01-16.3 437.01-1.45 441.51-1.2 441.51 0 428.81 0 428.81-1.2 432.11-1.4 432.11-22.75 428.16-22.95 428.16-24.1 437.01-24.65 436.71-18.5 436.91-18.5Q437.76-21.2 440.04-23.1 442.31-25 444.51-25ZM487.91-25.05L487.91-25.05Q487.91-22.25 486.71-20.25 485.51-18.25 483.46-17.2L483.46-17.2Q479.61-15.3 474.26-15.3L474.26-15.3Q472.96-15.3 470.76-15.5L470.76-15.5 470.76-1.45 474.61-1.2 474.61 0 461.86 0 461.86-1.2 465.61-1.45 465.61-31.75 461.26-32.3 461.26-33.5 470.61-33.5 476.56-33.65Q487.91-33.65 487.91-25.05ZM472.96-16.85L472.96-16.85Q477.51-16.85 479.96-19.05 482.41-21.25 482.41-24.98 482.41-28.7 480.66-30.43 478.91-32.15 475.06-32.15L475.06-32.15Q473.36-32.15 470.76-31.95L470.76-31.95 470.76-16.95Q471.51-16.85 472.96-16.85ZM514.3-30.65Q512.1-31.5 511.1-31.6 510.1-31.7 508.68-31.78 507.25-31.85 505.33-31.85 503.4-31.85 500.75-31.6L500.75-31.6 500.75-1.75 506.25-1.6Q511.4-1.8 513.85-2.9L513.85-2.9Q520.5-5.95 520.55-16.7L520.55-16.7Q520.55-20.9 519.6-23.9 518.65-26.9 517.58-28.35 516.5-29.8 514.3-30.65ZM497.3-33.35L497.3-33.35 507-33.6Q511.45-33.6 514.8-32.85 518.15-32.1 520.95-30.3L520.95-30.3Q526.65-26.65 526.65-16.75L526.65-16.75Q526.65 0 506.25 0L506.25 0 491.15 0 491.15-1.3 495.5-1.7 495.5-31.65 491.15-32.2 491.15-33.5Q494.2-33.35 497.3-33.35ZM550.7-15.65L540.3-15.65 540.3-1.65 544.65-1.2 544.65 0 530.8 0 530.8-1.2 535.15-1.65 535.15-31.7 530.8-32.3 530.8-33.4 555.05-33.4 555.1-26.3 553.8-26.3 552.1-31.6 540.3-31.75 540.3-17.45 550.7-17.45 552.25-21.15 553.25-21.15 553.25-11.85 552.2-11.85 550.7-15.65Z" opacity="1" transform="matrix(1,0,0,1,0,0)" fill="#e9e4de" class="slogan-text-1" data-fill-palette-color="secondary" id="text-1"></path></svg></g></svg></g></svg></g></svg></g><g><svg viewBox="0 0 245.65351679999995 245.65351679999995" height="245.65351679999995" width="245.65351679999995"><g><svg xmlns="http://www.w3.org/2000/svg" viewBox="3 3 42 42" x="0" y="0" height="245.65351679999995" width="245.65351679999995" class="icon-icon-0" data-fill-palette-color="accent" id="icon-0"><g fill="#99abc1" data-fill-palette-color="accent"><circle cx="19" cy="10" r="1.0" fill="#99abc1" data-fill-palette-color="accent"></circle><circle cx="10" cy="29" r="1.0" fill="#99abc1" data-fill-palette-color="accent"></circle><circle cx="29" cy="10" r="1.0" fill="#99abc1" data-fill-palette-color="accent"></circle><circle cx="38" cy="19" r="1.0" fill="#99abc1" data-fill-palette-color="accent"></circle><circle cx="19" cy="38" r="1.0" fill="#99abc1" data-fill-palette-color="accent"></circle><circle cx="10" cy="19" r="1.0" fill="#99abc1" data-fill-palette-color="accent"></circle><circle cx="38" cy="29" r="1.0" fill="#99abc1" data-fill-palette-color="accent"></circle><circle cx="29" cy="38" r="1.0" fill="#99abc1" data-fill-palette-color="accent"></circle><path d="M17 31H31V17H17Zm7-13h5a1 1 0 0 1 0 2H24a1 1 0 0 1 0-2Z" fill="#99abc1" data-fill-palette-color="accent"></path><path d="M24 3A21 21 0 1 0 45 24 21 21 0 0 0 24 3ZM38 32a3 3 0 0 1-2.82-2H33v2a1 1 0 0 1-1 1H30v2.18a3 3 0 1 1-2 0V33H20v2.18a3 3 0 1 1-2 0V33H16a1 1 0 0 1-1-1V30H12.82a3 3 0 1 1 0-2H15V20H12.82a3 3 0 1 1 0-2H15V16a1 1 0 0 1 1-1h2V12.82a3 3 0 1 1 2 0V15h8V12.82a3 3 0 1 1 2 0V15h2a1 1 0 0 1 1 1v2h2.18a3 3 0 1 1 0 2H33v8h2.18A3 3 0 1 1 38 32Z" fill="#99abc1" data-fill-palette-color="accent"></path></g></svg></g></svg></g></svg></g><defs></defs></svg><rect width="395.52" height="147.02949210986603" fill="none" stroke="none" visibility="hidden"></rect></g></svg></g></svg>